<svg width="900" height="210" viewBox="0 0 900 210" fill="none" xmlns="http://www.w3.org/2000/svg">
  <rect width="900" height="210" rx="24" fill="#F7F2ED"/>
  <path d="M46 42H170C199.823 42 224 66.1766 224 96C224 125.823 199.823 150 170 150H46V42Z" fill="#161219"/>
  <path d="M82 70H162C176.359 70 188 81.6406 188 96C188 110.359 176.359 122 162 122H82V70Z" fill="#F7F2ED"/>
  <path d="M188 58H308L340 96L308 134H188V112H270V80H188V58Z" fill="#8A1F43"/>
  <path d="M286 80H394L428 122H344L312 96L286 80Z" fill="#161219"/>
  <text x="478" y="100" fill="#161219" font-family="Source Sans 3, Segoe UI, sans-serif" font-size="68" font-weight="700" letter-spacing="-0.05em">SkyRush Express Courier</text>
  <text x="480" y="138" fill="#6A616A" font-family="Source Sans 3, Segoe UI, sans-serif" font-size="22" font-weight="600" letter-spacing="0.14em">SHIPPING OPERATIONS PLATFORM</text>
</svg>
